<?xml version="1.0" encoding="utf-8"?>
<!-- Generator: Adobe Illustrator 25.1.0, SVG Export Plug-In . SVG Version: 6.00 Build 0)  -->
<svg version="1.1" id="Layer_1" xmlns="http://www.w3.org/2000/svg" xmlns:xlink="http://www.w3.org/1999/xlink" x="0px" y="0px"
	 viewBox="0 0 792 612" style="enable-background:new 0 0 792 612;" xml:space="preserve">
<style type="text/css">
	.st0{fill:#FFFFFF;stroke:#000000;stroke-width:3;stroke-miterlimit:10;}
</style>
<path class="st0" d="M789,351.9c0,105.3-85.4,190.7-190.7,190.7c-37.7,0-72.9-11-102.5-29.9c-33.1,19-71.5,29.9-112.5,29.9
	c-47.4,0-91.4-14.6-127.8-39.5c-26.9,24.6-62.7,39.5-102,39.5C69.8,542.6,2,474.7,2,391.1s67.8-151.5,151.5-151.5
	c5.6,0,11.1,0.3,16.5,0.9c31.1-87.8,114.9-150.6,213.4-150.6c67.7,0,128.4,29.7,169.9,76.8c14.5-3.5,29.6-5.4,45.1-5.4
	C703.6,161.2,789,246.6,789,351.9z"/>
</svg>
