<?xml version="1.0" encoding="utf-8"?>
<!-- Generator: Adobe Illustrator 25.1.0, SVG Export Plug-In . SVG Version: 6.00 Build 0)  -->
<svg version="1.1" id="Layer_1" xmlns="http://www.w3.org/2000/svg" xmlns:xlink="http://www.w3.org/1999/xlink" x="0px" y="0px"
	 viewBox="0 0 400 300" style="enable-background:new 0 0 400 300;" xml:space="preserve">
<style type="text/css">
	.st0{opacity:0.64;fill:#E6E7E8;stroke:#000000;stroke-miterlimit:10;}
</style>
<path class="st0" d="M399,157.3c0,40.7-33.2,73.6-74.3,73.6c-18.1,0-34.7-6.4-47.6-17.1c-16.4,10.8-36.2,17.1-57.4,17.1
	c-28.9,0-55-11.7-73.8-30.5C131,219,108,230.9,82.2,230.9c-44.9,0-81.2-36-81.2-80.5C1,106,37.4,69.9,82.2,69.9
	c16.3,0,31.4,4.8,44.2,12.9c16.9-34.2,52.3-57.8,93.4-57.8c41.7,0,77.6,24.3,94.1,59.5c3.6-0.5,7.2-0.8,10.9-0.8
	C365.8,83.7,399,116.7,399,157.3z"/>
</svg>
