<?xml version="1.0" encoding="utf-8"?>
<!-- Generator: Adobe Illustrator 25.1.0, SVG Export Plug-In . SVG Version: 6.00 Build 0)  -->
<svg version="1.1" id="Layer_1" xmlns="http://www.w3.org/2000/svg" xmlns:xlink="http://www.w3.org/1999/xlink" x="0px" y="0px"
	 viewBox="0 0 1920 1080" style="enable-background:new 0 0 1920 1080;" xml:space="preserve">
<style type="text/css">
	.st0{fill:url(#SVGID_1_);stroke:#000000;stroke-miterlimit:10;}
	.st1{fill:url(#SVGID_2_);stroke:#000000;stroke-miterlimit:10;}
	.st2{fill:none;stroke:#000000;stroke-miterlimit:10;}
	.st3{fill:url(#SVGID_3_);stroke:url(#SVGID_4_);stroke-miterlimit:10;}
	.st4{fill:url(#SVGID_5_);stroke:#000000;stroke-miterlimit:10;}
	.st5{fill:url(#SVGID_6_);stroke:#000000;stroke-miterlimit:10;}
</style>
<linearGradient id="SVGID_1_" gradientUnits="userSpaceOnUse" x1="518.5" y1="704.75" x2="655.5625" y2="704.75">
	<stop  offset="0" style="stop-color:#FF7BAC"/>
	<stop  offset="1" style="stop-color:#FF7BAC;stop-opacity:0"/>
</linearGradient>
<path class="st0" d="M645.5,731l-127,141.4V537.1l0.2,0.2l126.8,141.2C658.9,693.4,658.9,716,645.5,731z"/>
<linearGradient id="SVGID_2_" gradientUnits="userSpaceOnUse" x1="598.4375" y1="537.79" x2="735.5" y2="537.79">
	<stop  offset="0" style="stop-color:#FF7BAC"/>
	<stop  offset="1" style="stop-color:#FF7BAC;stop-opacity:0"/>
</linearGradient>
<path class="st1" d="M735.5,370.2v335.3L608.5,564c-13.4-14.9-13.4-37.5,0-52.4l126.7-141.1L735.5,370.2z"/>
<path class="st2" d="M518.7,537.3c-0.1,0.1-0.1,0.1-0.2,0.2"/>
<line class="st2" x1="716.5" y1="369.5" x2="716.5" y2="369.2"/>
<path class="st2" d="M735.8,705.2c-0.1,0.1-0.1,0.1-0.2,0.2"/>
<linearGradient id="SVGID_3_" gradientUnits="userSpaceOnUse" x1="495.9743" y1="490.6293" x2="757.736" y2="752.3909">
	<stop  offset="0" style="stop-color:#FFFFFF"/>
	<stop  offset="1" style="stop-color:#FF931E"/>
</linearGradient>
<linearGradient id="SVGID_4_" gradientUnits="userSpaceOnUse" x1="518" y1="621.5" x2="736.3111" y2="621.5">
	<stop  offset="0" style="stop-color:#EFA048"/>
	<stop  offset="1" style="stop-color:#FF931E"/>
</linearGradient>
<path class="st3" d="M735.5,705.4L735.5,705.4c0,92.3-74.8,167.1-167.1,167.1h-49.9v-0.1l127-141.4c13.4-14.9,13.4-37.5,0-52.4
	L518.7,537.3l-0.2-0.2v0c0-92,74.6-166.6,166.6-166.6h50.1L608.5,511.6c-13.4,14.9-13.4,37.5,0,52.4L735.5,705.4z"/>
<linearGradient id="SVGID_5_" gradientUnits="userSpaceOnUse" x1="655.5625" y1="704.75" x2="518.5" y2="704.75">
	<stop  offset="0" style="stop-color:#FF7BAC"/>
	<stop  offset="1" style="stop-color:#FF7BAC;stop-opacity:0"/>
</linearGradient>
<path class="st4" d="M645.5,678.5c13.4,14.9,13.4,37.5,0,52.4l-127,141.4V537.1l0.2,0.2L645.5,678.5z"/>
<linearGradient id="SVGID_6_" gradientUnits="userSpaceOnUse" x1="735.5" y1="537.96" x2="598.4375" y2="537.96">
	<stop  offset="0" style="stop-color:#FF7BAC"/>
	<stop  offset="1" style="stop-color:#FF7BAC;stop-opacity:0"/>
</linearGradient>
<path class="st5" d="M735.5,370.5v334.9L608.5,564c-13.4-14.9-13.4-37.5,0-52.4l126.7-141.1H735.5z"/>
</svg>
